<svg style="position: absolute; width: 0; height: 0; overflow: hidden;" version="1.1" xmlns="http://www.w3.org/2000/svg" xmlns:xlink="http://www.w3.org/1999/xlink">
<defs>
    <symbol id="instagram" fill="hsl(203, 92%, 65%)" viewBox="0 0 32 32">
        <title>instagram</title>
        <path d="M16 2.881c4.275 0 4.781 0.019 6.462 0.094 1.563 0.069 2.406 0.331 2.969 0.55 0.744 0.288 1.281 0.638 1.837 1.194 0.563 0.563 0.906 1.094 1.2 1.838 0.219 0.563 0.481 1.412 0.55 2.969 0.075 1.688 0.094 2.194 0.094 6.463s-0.019 4.781-0.094 6.463c-0.069 1.563-0.331 2.406-0.55 2.969-0.288 0.744-0.637 1.281-1.194 1.837-0.563 0.563-1.094 0.906-1.837 1.2-0.563 0.219-1.413 0.481-2.969 0.55-1.688 0.075-2.194 0.094-6.463 0.094s-4.781-0.019-6.463-0.094c-1.563-0.069-2.406-0.331-2.969-0.55-0.744-0.288-1.281-0.637-1.838-1.194-0.563-0.563-0.906-1.094-1.2-1.837-0.219-0.563-0.481-1.413-0.55-2.969-0.075-1.688-0.094-2.194-0.094-6.463s0.019-4.781 0.094-6.463c0.069-1.563 0.331-2.406 0.55-2.969 0.288-0.744 0.638-1.281 1.194-1.838 0.563-0.563 1.094-0.906 1.838-1.2 0.563-0.219 1.412-0.481 2.969-0.55 1.681-0.075 2.188-0.094 6.463-0.094zM16 0c-4.344 0-4.887 0.019-6.594 0.094-1.7 0.075-2.869 0.35-3.881 0.744-1.056 0.412-1.95 0.956-2.837 1.85-0.894 0.888-1.438 1.781-1.85 2.831-0.394 1.019-0.669 2.181-0.744 3.881-0.075 1.713-0.094 2.256-0.094 6.6s0.019 4.887 0.094 6.594c0.075 1.7 0.35 2.869 0.744 3.881 0.413 1.056 0.956 1.95 1.85 2.837 0.887 0.887 1.781 1.438 2.831 1.844 1.019 0.394 2.181 0.669 3.881 0.744 1.706 0.075 2.25 0.094 6.594 0.094s4.888-0.019 6.594-0.094c1.7-0.075 2.869-0.35 3.881-0.744 1.050-0.406 1.944-0.956 2.831-1.844s1.438-1.781 1.844-2.831c0.394-1.019 0.669-2.181 0.744-3.881 0.075-1.706 0.094-2.25 0.094-6.594s-0.019-4.887-0.094-6.594c-0.075-1.7-0.35-2.869-0.744-3.881-0.394-1.063-0.938-1.956-1.831-2.844-0.887-0.887-1.781-1.438-2.831-1.844-1.019-0.394-2.181-0.669-3.881-0.744-1.712-0.081-2.256-0.1-6.6-0.1v0z"></path>
        <path d="M16 7.781c-4.537 0-8.219 3.681-8.219 8.219s3.681 8.219 8.219 8.219 8.219-3.681 8.219-8.219c0-4.537-3.681-8.219-8.219-8.219zM16 21.331c-2.944 0-5.331-2.387-5.331-5.331s2.387-5.331 5.331-5.331c2.944 0 5.331 2.387 5.331 5.331s-2.387 5.331-5.331 5.331z"></path>
        <path d="M26.462 7.456c0 1.060-0.859 1.919-1.919 1.919s-1.919-0.859-1.919-1.919c0-1.060 0.859-1.919 1.919-1.919s1.919 0.859 1.919 1.919z"></path>
    </symbol>

    <symbol id="youtube" fill="hsl(203, 92%, 65%)" viewBox="0 0 32 32">
        <title>youtube</title>
        <path d="M31.681 9.6c0 0-0.313-2.206-1.275-3.175-1.219-1.275-2.581-1.281-3.206-1.356-4.475-0.325-11.194-0.325-11.194-0.325h-0.012c0 0-6.719 0-11.194 0.325-0.625 0.075-1.987 0.081-3.206 1.356-0.963 0.969-1.269 3.175-1.269 3.175s-0.319 2.588-0.319 5.181v2.425c0 2.587 0.319 5.181 0.319 5.181s0.313 2.206 1.269 3.175c1.219 1.275 2.819 1.231 3.531 1.369 2.563 0.244 10.881 0.319 10.881 0.319s6.725-0.012 11.2-0.331c0.625-0.075 1.988-0.081 3.206-1.356 0.962-0.969 1.275-3.175 1.275-3.175s0.319-2.587 0.319-5.181v-2.425c-0.006-2.588-0.325-5.181-0.325-5.181zM12.694 20.15v-8.994l8.644 4.513-8.644 4.481z"></path>
    </symbol>

    <symbol id="tiktok" fill="hsl(203, 92%, 65%)" viewBox="0 0 32 32">
        <title>tiktok</title>
        <path d="M16.707 0.027c1.747-0.027 3.48-0.013 5.213-0.027 0.107 2.040 0.84 4.12 2.333 5.56 1.493 1.48 3.6 2.16 5.653 2.387v5.373c-1.92-0.067-3.853-0.467-5.6-1.293-0.76-0.347-1.467-0.787-2.16-1.24-0.013 3.893 0.013 7.787-0.027 11.667-0.107 1.867-0.72 3.72-1.8 5.253-1.747 2.56-4.773 4.227-7.88 4.28-1.907 0.107-3.813-0.413-5.44-1.373-2.693-1.587-4.587-4.493-4.867-7.613-0.027-0.667-0.040-1.333-0.013-1.987 0.24-2.533 1.493-4.96 3.44-6.613 2.213-1.92 5.307-2.84 8.2-2.293 0.027 1.973-0.053 3.947-0.053 5.92-1.32-0.427-2.867-0.307-4.027 0.493-0.84 0.547-1.48 1.387-1.813 2.333-0.28 0.68-0.2 1.427-0.187 2.147 0.32 2.187 2.427 4.027 4.667 3.827 1.493-0.013 2.92-0.88 3.693-2.147 0.253-0.44 0.533-0.893 0.547-1.413 0.133-2.387 0.080-4.76 0.093-7.147 0.013-5.373-0.013-10.733 0.027-16.093z"></path>
    </symbol>

    <symbol id="compass" fill="hsl(0, 0%, 80%)" viewBox="0 0 24 24">
        <title>compass</title>
        <path d="M23.056 7.328c-0.603-1.428-1.469-2.712-2.572-3.813-1.103-1.103-2.384-1.966-3.813-2.572-1.481-0.625-3.053-0.944-4.672-0.944s-3.191 0.319-4.672 0.944c-1.428 0.603-2.712 1.469-3.813 2.572-1.103 1.103-1.966 2.384-2.572 3.813-0.625 1.481-0.944 3.053-0.944 4.672s0.319 3.191 0.944 4.672c0.603 1.428 1.469 2.712 2.572 3.813 1.103 1.103 2.384 1.966 3.813 2.572 1.481 0.625 3.053 0.944 4.672 0.944s3.191-0.319 4.672-0.944c1.428-0.603 2.712-1.469 3.813-2.572 1.103-1.103 1.966-2.384 2.572-3.813 0.625-1.481 0.944-3.053 0.944-4.672s-0.319-3.191-0.944-4.672zM12 22c-5.512 0-10-4.488-10-10s4.488-10 10-10c5.513 0 10 4.488 10 10s-4.488 10-10 10z"></path>
        <path d="M12 3c-2.403 0-4.666 0.938-6.363 2.637s-2.637 3.959-2.637 6.363 0.938 4.666 2.637 6.363c1.697 1.7 3.959 2.637 6.363 2.637s4.666-0.938 6.363-2.637c1.7-1.697 2.637-3.959 2.637-6.363s-0.938-4.666-2.637-6.363c-1.697-1.7-3.959-2.637-6.363-2.637zM12 20c-4.413 0-8-3.588-8-8s3.588-8 8-8c4.413 0 8 3.588 8 8s-3.588 8-8 8z"></path>
        <path d="M16.275 7.053l-6 3c-0.097 0.047-0.175 0.128-0.225 0.225l-3 6c-0.097 0.194-0.059 0.425 0.094 0.578 0.097 0.097 0.225 0.147 0.353 0.147 0.075 0 0.153-0.019 0.225-0.053l6-3c0.097-0.047 0.175-0.128 0.225-0.225l3-6c0.097-0.194 0.059-0.425-0.094-0.578s-0.384-0.191-0.578-0.094zM10.638 11.344l2.019 2.019-4.038 2.019 2.019-4.038zM13.362 12.656l-2.019-2.019 4.038-2.019-2.019 4.038z"></path>
    </symbol>
    
    <symbol id="close" fill="hsl(0, 0%, 80%)" viewBox="0 0 24 24">
        <title>close</title>
        <path d="M23.056 7.328c-0.603-1.428-1.469-2.712-2.572-3.813-1.103-1.103-2.384-1.966-3.813-2.572-1.481-0.625-3.053-0.944-4.672-0.944s-3.191 0.319-4.672 0.944c-1.428 0.603-2.712 1.469-3.813 2.572-1.103 1.103-1.966 2.384-2.572 3.813-0.625 1.481-0.944 3.053-0.944 4.672s0.319 3.191 0.944 4.672c0.603 1.428 1.469 2.712 2.572 3.813 1.103 1.103 2.384 1.966 3.813 2.572 1.481 0.625 3.053 0.944 4.672 0.944s3.191-0.319 4.672-0.944c1.428-0.603 2.712-1.469 3.813-2.572 1.103-1.103 1.966-2.384 2.572-3.813 0.625-1.481 0.944-3.053 0.944-4.672s-0.319-3.191-0.944-4.672zM12 22c-5.512 0-10-4.488-10-10s4.488-10 10-10c5.513 0 10 4.488 10 10s-4.488 10-10 10z"></path>
        <path d="M12 3c-2.403 0-4.666 0.938-6.363 2.637s-2.637 3.959-2.637 6.363 0.938 4.666 2.637 6.363c1.697 1.7 3.959 2.637 6.363 2.637s4.666-0.938 6.363-2.637c1.7-1.697 2.637-3.959 2.637-6.363s-0.938-4.666-2.637-6.363c-1.697-1.7-3.959-2.637-6.363-2.637zM12 20c-4.413 0-8-3.588-8-8s3.588-8 8-8c4.413 0 8 3.588 8 8s-3.588 8-8 8z"></path>
        <path d="M14.538 8.050l-2.538 2.534-2.538-2.534-1.413 1.413 2.534 2.538-2.534 2.538 1.413 1.413 2.538-2.534 2.538 2.534 1.413-1.413-2.534-2.538 2.534-2.538z"></path>
    </symbol>
</defs>
</svg>
